<svg xmlns="http://www.w3.org/2000/svg" xmlns:xlink="http://www.w3.org/1999/xlink" width="500" zoomAndPan="magnify" viewBox="0 0 375 374.999991" height="500" preserveAspectRatio="xMidYMid meet" version="1.0"><defs><g/><clipPath id="1c469c617d"><rect x="0" width="151" y="0" height="51"/></clipPath><clipPath id="d9e883c614"><path d="M 49 46.355469 L 343 46.355469 L 343 343 L 49 343 Z M 49 46.355469 " clip-rule="nonzero"/></clipPath></defs><g transform="matrix(1, 0, 0, 1, 113, 274)"><g clip-path="url(#1c469c617d)"><g fill="#000000" fill-opacity="1"><g transform="translate(0.578938, 37.531602)"><g><path d="M 33.609375 2.921875 L 29.34375 -1.34375 C 28.125 -0.707031 26.742188 -0.210938 25.203125 0.140625 C 23.671875 0.503906 22.015625 0.6875 20.234375 0.6875 C 17.148438 0.6875 14.453125 0.203125 12.140625 -0.765625 C 9.828125 -1.742188 7.898438 -3.082031 6.359375 -4.78125 C 4.828125 -6.488281 3.679688 -8.421875 2.921875 -10.578125 C 2.160156 -12.742188 1.78125 -15.003906 1.78125 -17.359375 C 1.78125 -19.703125 2.160156 -21.953125 2.921875 -24.109375 C 3.679688 -26.273438 4.828125 -28.207031 6.359375 -29.90625 C 7.898438 -31.613281 9.828125 -32.957031 12.140625 -33.9375 C 14.453125 -34.914062 17.148438 -35.40625 20.234375 -35.40625 C 23.304688 -35.40625 26 -34.914062 28.3125 -33.9375 C 30.625 -32.957031 32.546875 -31.613281 34.078125 -29.90625 C 35.617188 -28.207031 36.769531 -26.273438 37.53125 -24.109375 C 38.289062 -21.953125 38.671875 -19.703125 38.671875 -17.359375 C 38.671875 -15.171875 38.335938 -13.066406 37.671875 -11.046875 C 37.015625 -9.035156 36.007812 -7.222656 34.65625 -5.609375 L 38.671875 -1.640625 Z M 20.234375 -6.203125 C 20.921875 -6.203125 21.5625 -6.257812 22.15625 -6.375 C 22.75 -6.488281 23.3125 -6.644531 23.84375 -6.84375 L 19.734375 -11 L 24.546875 -15.71875 L 29.25 -11 C 29.84375 -11.894531 30.285156 -12.882812 30.578125 -13.96875 C 30.878906 -15.0625 31.03125 -16.191406 31.03125 -17.359375 C 31.03125 -19.398438 30.625 -21.265625 29.8125 -22.953125 C 29.007812 -24.640625 27.804688 -25.992188 26.203125 -27.015625 C 24.597656 -28.046875 22.609375 -28.5625 20.234375 -28.5625 C 17.847656 -28.5625 15.851562 -28.046875 14.25 -27.015625 C 12.644531 -25.992188 11.4375 -24.640625 10.625 -22.953125 C 9.820312 -21.265625 9.421875 -19.398438 9.421875 -17.359375 C 9.421875 -15.335938 9.820312 -13.472656 10.625 -11.765625 C 11.4375 -10.066406 12.644531 -8.710938 14.25 -7.703125 C 15.851562 -6.703125 17.847656 -6.203125 20.234375 -6.203125 Z M 20.234375 -6.203125 "/></g></g></g><g fill="#000000" fill-opacity="1"><g transform="translate(39.990717, 37.531602)"><g><path d="M 11.546875 0.6875 C 9.734375 0.6875 8.007812 0.492188 6.375 0.109375 C 4.738281 -0.265625 3.304688 -0.8125 2.078125 -1.53125 L 2.078125 -7.234375 C 3.367188 -6.410156 4.847656 -5.78125 6.515625 -5.34375 C 8.179688 -4.914062 9.726562 -4.703125 11.15625 -4.703125 C 12.414062 -4.703125 13.421875 -4.832031 14.171875 -5.09375 C 14.929688 -5.363281 15.3125 -5.832031 15.3125 -6.5 C 15.3125 -7.125 14.988281 -7.632812 14.34375 -8.03125 C 13.707031 -8.425781 12.875 -8.769531 11.84375 -9.0625 C 10.820312 -9.363281 9.738281 -9.6875 8.59375 -10.03125 C 7.457031 -10.382812 6.375 -10.84375 5.34375 -11.40625 C 4.320312 -11.96875 3.488281 -12.707031 2.84375 -13.625 C 2.207031 -14.550781 1.890625 -15.726562 1.890625 -17.15625 C 1.890625 -19.007812 2.367188 -20.460938 3.328125 -21.515625 C 4.285156 -22.578125 5.523438 -23.335938 7.046875 -23.796875 C 8.566406 -24.253906 10.148438 -24.484375 11.796875 -24.484375 C 13.484375 -24.484375 15.0625 -24.289062 16.53125 -23.90625 C 18 -23.53125 19.347656 -23.046875 20.578125 -22.453125 L 20.578125 -16.75 C 19.546875 -17.445312 18.253906 -18.023438 16.703125 -18.484375 C 15.148438 -18.953125 13.679688 -19.1875 12.296875 -19.1875 C 11.503906 -19.1875 10.75 -19.0625 10.03125 -18.8125 C 9.320312 -18.5625 8.96875 -18.054688 8.96875 -17.296875 C 8.96875 -16.640625 9.289062 -16.117188 9.9375 -15.734375 C 10.582031 -15.359375 11.414062 -15.019531 12.4375 -14.71875 C 13.46875 -14.425781 14.550781 -14.101562 15.6875 -13.75 C 16.832031 -13.40625 17.90625 -12.957031 18.90625 -12.40625 C 19.914062 -11.863281 20.742188 -11.128906 21.390625 -10.203125 C 22.035156 -9.285156 22.359375 -8.097656 22.359375 -6.640625 C 22.359375 -4.785156 21.851562 -3.320312 20.84375 -2.25 C 19.832031 -1.175781 18.507812 -0.421875 16.875 0.015625 C 15.238281 0.460938 13.460938 0.6875 11.546875 0.6875 Z M 11.546875 0.6875 "/></g></g></g><g fill="#000000" fill-opacity="1"><g transform="translate(62.745314, 37.531602)"><g><path d="M 8.234375 0 L 0.59375 -23.796875 L 7.9375 -23.796875 L 12.296875 -7.53125 L 17 -23.796875 L 23.546875 -23.796875 L 28.265625 -7.53125 L 32.578125 -23.796875 L 39.953125 -23.796875 L 32.28125 0 L 24.9375 0 L 20.28125 -15.46875 L 15.5625 0 Z M 8.234375 0 "/></g></g></g><g fill="#000000" fill-opacity="1"><g transform="translate(102.305825, 37.531602)"><g><path d="M 2.921875 0 L 2.921875 -23.796875 L 9.015625 -23.796875 L 9.015625 -20.234375 C 9.878906 -21.554688 11.144531 -22.617188 12.8125 -23.421875 C 14.476562 -24.234375 16.4375 -24.523438 18.6875 -24.296875 L 18.6875 -17.546875 C 16.769531 -17.910156 15 -17.757812 13.375 -17.09375 C 11.757812 -16.4375 10.570312 -15.398438 9.8125 -13.984375 L 9.8125 0 Z M 2.921875 0 "/></g></g></g><g fill="#000000" fill-opacity="1"><g transform="translate(120.697842, 37.531602)"><g><path d="M 9.625 0.6875 C 8.164062 0.6875 6.800781 0.410156 5.53125 -0.140625 C 4.257812 -0.703125 3.242188 -1.53125 2.484375 -2.625 C 1.722656 -3.71875 1.34375 -5.039062 1.34375 -6.59375 C 1.34375 -8.113281 1.65625 -9.378906 2.28125 -10.390625 C 2.90625 -11.398438 3.726562 -12.207031 4.75 -12.8125 C 5.78125 -13.425781 6.914062 -13.863281 8.15625 -14.125 C 9.394531 -14.394531 10.609375 -14.53125 11.796875 -14.53125 C 12.753906 -14.53125 13.71875 -14.46875 14.6875 -14.34375 C 15.664062 -14.226562 16.585938 -14.070312 17.453125 -13.875 L 17.453125 -14.71875 C 17.453125 -15.875 16.976562 -16.832031 16.03125 -17.59375 C 15.09375 -18.351562 13.695312 -18.734375 11.84375 -18.734375 C 10.195312 -18.734375 8.660156 -18.539062 7.234375 -18.15625 C 5.816406 -17.78125 4.546875 -17.363281 3.421875 -16.90625 L 3.421875 -22.90625 C 4.378906 -23.238281 5.691406 -23.582031 7.359375 -23.9375 C 9.023438 -24.300781 10.769531 -24.484375 12.59375 -24.484375 C 15.007812 -24.484375 17.09375 -24.128906 18.84375 -23.421875 C 20.59375 -22.710938 21.945312 -21.570312 22.90625 -20 C 23.863281 -18.4375 24.34375 -16.347656 24.34375 -13.734375 L 24.34375 -6.140625 C 24.34375 -5.515625 24.515625 -5.09375 24.859375 -4.875 C 25.210938 -4.664062 25.601562 -4.5625 26.03125 -4.5625 C 26.226562 -4.5625 26.429688 -4.582031 26.640625 -4.625 C 26.859375 -4.675781 27.066406 -4.722656 27.265625 -4.765625 L 27.265625 -0.25 C 26.734375 -0.0507812 26.132812 0.113281 25.46875 0.25 C 24.8125 0.382812 24.140625 0.453125 23.453125 0.453125 C 22.328125 0.453125 21.316406 0.238281 20.421875 -0.1875 C 19.535156 -0.625 18.84375 -1.269531 18.34375 -2.125 L 18.25 -2.28125 C 17.125 -1.351562 15.847656 -0.625 14.421875 -0.09375 C 13.003906 0.425781 11.40625 0.6875 9.625 0.6875 Z M 12.09375 -4.21875 C 13.050781 -4.21875 13.984375 -4.378906 14.890625 -4.703125 C 15.804688 -5.035156 16.660156 -5.550781 17.453125 -6.25 L 17.453125 -9.859375 C 16.921875 -9.992188 16.28125 -10.109375 15.53125 -10.203125 C 14.789062 -10.304688 14.078125 -10.359375 13.390625 -10.359375 C 12.160156 -10.359375 11.023438 -10.125 9.984375 -9.65625 C 8.941406 -9.195312 8.421875 -8.359375 8.421875 -7.140625 C 8.421875 -6.242188 8.773438 -5.53125 9.484375 -5 C 10.203125 -4.476562 11.070312 -4.21875 12.09375 -4.21875 Z M 12.09375 -4.21875 "/></g></g></g></g></g><g clip-path="url(#d9e883c614)"><path fill="#534293" d="M 337.1875 291.226562 C 341.710938 291.230469 344.421875 286.285156 342.089844 282.398438 C 332.347656 266.191406 333.179688 233.480469 333.179688 233.480469 L 333.21875 104.144531 C 333.25 72.234375 307.417969 46.347656 275.503906 46.355469 C 275.488281 46.367188 275.488281 46.367188 275.476562 46.382812 L 106.972656 46.355469 C 74.960938 46.347656 49.003906 72.335938 49.011719 104.386719 L 49.027344 274.085938 C 48.210938 305.441406 75.765625 331.878906 106.617188 331.894531 L 235.902344 331.84375 L 238.542969 331.84375 C 246.667969 331.988281 271.816406 333.140625 285.109375 341.628906 C 288.996094 344.105469 294.046875 341.117188 293.914062 336.5 C 293.554688 324.417969 291.507812 312.339844 285.257812 301.996094 C 274.871094 284.8125 255.960938 274.078125 235.882812 274.066406 L 191.105469 274.070312 C 144.484375 274.078125 106.691406 236.230469 106.691406 189.554688 L 106.691406 188.601562 C 106.699219 141.925781 144.488281 104.09375 191.101562 104.09375 C 237.6875 104.101562 275.457031 141.894531 275.496094 188.542969 L 275.527344 233.460938 C 275.542969 265.386719 301.296875 291.191406 333.121094 291.210938 Z M 337.1875 291.226562 " fill-opacity="1" fill-rule="nonzero"/></g></svg>